<svg xmlns="http://www.w3.org/2000/svg" version="1.1" width="746px" height="800px"
     style="shape-rendering:geometricPrecision; text-rendering:geometricPrecision; image-rendering:optimizeQuality; fill-rule:evenodd; clip-rule:evenodd"
>
    <g>
        <path style="opacity:0.984" fill="#df3235"
              d="M 352.5,-0.5 C 365.833,-0.5 379.167,-0.5 392.5,-0.5C 458.844,8.3269 510.511,40.4936 547.5,96C 623.572,101.585 681.072,136.752 720,201.5C 733.872,226.943 742.372,253.943 745.5,282.5C 745.5,295.833 745.5,309.167 745.5,322.5C 742.43,349.259 734.763,374.759 722.5,399C 734.613,423.642 742.28,449.476 745.5,476.5C 745.5,489.833 745.5,503.167 745.5,516.5C 734.582,597.852 691.582,655.018 616.5,688C 594.239,696.319 571.239,701.319 547.5,703C 510.511,758.506 458.844,790.673 392.5,799.5C 379.167,799.5 365.833,799.5 352.5,799.5C 286.156,790.673 234.489,758.506 197.5,703C 121.428,697.415 63.9276,662.248 25,597.5C 11.531,571.933 3.03098,544.933 -0.5,516.5C -0.5,503.167 -0.5,489.833 -0.5,476.5C 2.56941,449.746 10.2361,424.246 22.5,400C 10.3865,375.358 2.71985,349.524 -0.5,322.5C -0.5,309.167 -0.5,295.833 -0.5,282.5C 10.4184,201.148 53.4184,143.982 128.5,111C 150.761,102.681 173.761,97.6808 197.5,96C 234.489,40.4936 286.156,8.3269 352.5,-0.5 Z M 357.5,24.5 C 423.106,21.4803 476.439,45.3137 517.5,96C 457.537,104.634 409.204,132.801 372.5,180.5C 335.477,133.309 287.144,105.142 227.5,96C 260.833,54.1633 304.166,30.33 357.5,24.5 Z M 524.5,119.5 C 527.247,119.187 529.914,119.52 532.5,120.5C 554.026,164.102 558.526,209.436 546,256.5C 544.049,263.066 541.549,269.399 538.5,275.5C 501.79,228.795 453.79,201.128 394.5,192.5C 427.227,149.465 470.56,125.132 524.5,119.5 Z M 211.5,120.5 C 268.439,124.464 314.439,148.63 349.5,193C 289.873,200.634 241.873,228.134 205.5,275.5C 199.013,261.894 194.847,247.561 193,232.5C 187.606,193.195 193.773,155.862 211.5,120.5 Z M 561.5,123.5 C 589.096,125.42 614.763,133.92 638.5,149C 699.518,191.891 726.351,250.724 719,325.5C 716.669,341.496 712.169,356.83 705.5,371.5C 668.521,324.496 620.188,296.829 560.5,288.5C 583.975,233.523 584.308,178.523 561.5,123.5 Z M 176.5,123.5 C 178.527,123.338 180.527,123.505 182.5,124C 158.548,179.315 158.548,234.648 182.5,290C 122.726,298.18 74.5597,326.013 38,373.5C 16.0848,318.124 19.0848,264.124 47,211.5C 77.1718,163.156 120.338,133.822 176.5,123.5 Z M 346.5,218.5 C 347.978,218.238 349.311,218.571 350.5,219.5C 335.091,257.346 330.091,296.346 335.5,336.5C 303.776,311.414 267.776,295.914 227.5,290C 257.717,250.651 297.383,226.818 346.5,218.5 Z M 393.5,219.5 C 444.24,226.861 485.24,250.694 516.5,291C 475.969,296.057 439.802,311.224 408,336.5C 414.081,296.147 409.248,257.147 393.5,219.5 Z M 180.5,314.5 C 181.675,314.281 182.675,314.614 183.5,315.5C 159.519,370.706 159.519,425.873 183.5,481C 130.221,474.786 88.0543,449.953 57,406.5C 55.1105,403.888 53.6105,401.055 52.5,398C 82.7672,351.354 125.434,323.521 180.5,314.5 Z M 561.5,315.5 C 610.497,322.405 650.663,344.738 682,382.5C 685.749,387.662 689.249,392.996 692.5,398.5C 662.509,445.097 620.009,472.763 565,481.5C 563.833,481.333 562.667,481.167 561.5,481C 585.421,425.874 585.421,370.707 561.5,315.5 Z M 537.5,326.5 C 539.64,328.7 541.14,331.367 542,334.5C 554.415,372.436 555.748,410.77 546,449.5C 543.988,456.37 541.488,463.037 538.5,469.5C 513.376,437.548 482.043,413.714 444.5,398C 482.697,383.276 513.697,359.443 537.5,326.5 Z M 204.5,328.5 C 206.017,328.511 207.184,329.177 208,330.5C 231.992,361.924 262.492,384.758 299.5,399C 261.716,414.388 230.382,438.221 205.5,470.5C 195.202,448.008 190.535,424.341 191.5,399.5C 190.822,374.892 195.155,351.225 204.5,328.5 Z M 38.5,424.5 C 75.8872,471.544 124.554,499.544 184.5,508.5C 172.034,536.996 166.034,566.829 166.5,598C 166.433,624.671 172.1,650.004 183.5,674C 108.505,663.015 58.0052,621.849 32,550.5C 19.0331,507.702 21.1998,465.702 38.5,424.5 Z M 706.5,424.5 C 727.639,478.699 724.805,531.699 698,583.5C 667.253,635.952 621.753,665.952 561.5,673.5C 585.421,618.341 585.421,563.175 561.5,508C 614.451,501.324 658.951,478.491 695,439.5C 698.842,434.47 702.675,429.47 706.5,424.5 Z M 335.5,459.5 C 331.987,486.779 333.154,514.113 339,541.5C 342.302,554.062 345.969,566.395 350,578.5C 298.973,570.911 257.806,546.744 226.5,506C 267.575,501.049 303.909,485.549 335.5,459.5 Z M 407.5,461.5 C 439.732,486.274 476.065,501.774 516.5,508C 485.007,548.749 443.674,572.416 392.5,579C 409.326,541.379 414.326,502.212 407.5,461.5 Z M 204.5,520.5 C 241.458,567.335 289.791,595.169 349.5,604C 315.009,648.918 269.343,673.418 212.5,677.5C 193.702,642.046 187.202,604.379 193,564.5C 195.515,549.46 199.348,534.794 204.5,520.5 Z M 537.5,520.5 C 541.031,525.575 543.531,531.242 545,537.5C 554.545,572.756 554.879,608.09 546,643.5C 542.455,654.421 537.955,664.921 532.5,675C 475.469,672.486 429.469,648.819 394.5,604C 454.174,596.182 501.84,568.348 537.5,520.5 Z M 371.5,616.5 C 408.409,664.312 457.076,692.645 517.5,701.5C 474.129,754.474 418.129,777.974 349.5,772C 299.462,764.658 258.795,741.325 227.5,702C 282.346,693.999 327.846,669.166 364,627.5C 367.015,624.122 369.515,620.456 371.5,616.5 Z"/>
    </g>
</svg>
