<svg id="Calque_1" data-name="Calque 1" xmlns="http://www.w3.org/2000/svg" viewBox="0 0 490.00099 165.5"><defs><style>.cls-1{fill:#002169;fill-rule:evenodd;}</style></defs><title>Plumett_Logo</title><path class="cls-1" d="M541.58589,381.93512v-83.5a26.50082,26.50082,0,0,0-26.50089-26.5H105.0859a26.50006,26.50006,0,0,0-26.5,26.5v85a26.50012,26.50012,0,0,0,26.5,26.5h186l4,13.4995h-190a40,40,0,0,1-40-39.9995v-85a40.00005,40.00005,0,0,1,40-40h410.002a40.00016,40.00016,0,0,1,39.999,40v85a40.00012,40.00012,0,0,1-39.999,39.9995h-190.002l4-13.4995H515.085a26.50089,26.50089,0,0,0,26.50089-26.5" transform="translate(-65.0859 -258.43512)"/><path class="cls-1" d="M404.30269,291.31492l8.6739,18.33008,11.29-.00138,30.1406,61.2539s11.669-1.3047,21.4219-1.91652L445.043,309.64362h12.98139l-10.1279-18.3331-43.5938.0044Z" transform="translate(-65.0859 -258.43512)"/><path class="cls-1" d="M511.98629,309.645h-13.705l33.7216,58.27052c-13.00089.1431-21.705-.2719-21.705-.2719l-31.9483-58-11.4541.00138-10.1269-18.33008h42.8623Z" transform="translate(-65.0859 -258.43512)"/><path class="cls-1" d="M217.10839,350.957s-3,5.51032.1187,7.85312c5.3134,3.9921,8.894-6.1075,8.894-6.1075l24.98391-61.3921h18.32519l-25.1167,67.2286s-8.2788,24.9375-33.1143,18.1045c-24.54249-6.753-12.23629-30.85062-11.57419-32.0835,2.4316-4.5259,23.18849-53.2452,23.18849-53.2452h18.9682L217.10839,350.957Z" transform="translate(-65.0859 -258.43512)"/><path class="cls-1" d="M147.9048,367.69682l38.9282-76.3819h19.04l-28.4526,60.4839,16.0161,1.0113-8.0219,18.146s-34.315-3.7593-37.5098-3.2593Z" transform="translate(-65.0859 -258.43512)"/><path class="cls-1" d="M387.18749,382.32672l-32.1494-91.0162,39.2226.0044,8.3194,18.33008-19.5713-.001,5.9873,15.33312,16.2363-.5,7.2324,17.0268-17.1992.9727,7.0723,17.3335,22.9834-3.209,7.5225,16.9248s-24.67779,3.49608-45.6563,8.8008Z" transform="translate(-65.0859 -258.43512)"/><path class="cls-1" d="M296.25679,291.31492H279.459l-31.73831,92.1607c7.8965,2.001,21.1768,5.6811,21.1768,5.6811l15.6396-61.9306,25.544,96.709,25.5146-96.7686,16.4307,64.0064s13.0215-3.69492,20.917-5.6963l-31.9551-94.1617h-17.2442L310.189,358.49662" transform="translate(-65.0859 -258.43512)"/><path class="cls-1" d="M122.8896,345.14842h15.441s10.8501,1.7495,17.9633-10.875l14.4673-25.25c10.3687-18.625-6.8716-17.7036-6.8716-17.7036l-30.5024-.0049-45.21,76.7222a165.11768,165.11768,0,0,1,22.8238-.9243l21.8637-40.2979,10.4087-17.1665h5.1841c4.5142-.0605,1.7095,3.7535,1.7095,3.7535l-5.9019,10.0629c-1.7754,3.7461-4.9702,3.3501-4.9702,3.3501h-6.4302l-9.9751,18.3335Z" transform="translate(-65.0859 -258.43512)"/></svg>
